<?xml version="1.0" encoding="UTF-8"?>
<svg version="1.1" xmlns="http://www.w3.org/2000/svg" width="1024" height="1024">
<path d="M0 0 C337.92 0 675.84 0 1024 0 C1024 337.92 1024 675.84 1024 1024 C686.08 1024 348.16 1024 0 1024 C0 686.08 0 348.16 0 0 Z " fill="#171A1E" transform="translate(0,0)"/>
<path d="M0 0 C337.92 0 675.84 0 1024 0 C1024 337.92 1024 675.84 1024 1024 C686.08 1024 348.16 1024 0 1024 C0 686.08 0 348.16 0 0 Z M158.8125 108 C157.64332031 108.495 156.47414062 108.99 155.26953125 109.5 C152.14301385 110.93438791 149.06433044 112.43760997 146 114 C146 114.66 146 115.32 146 116 C145.26136719 116.268125 144.52273437 116.53625 143.76171875 116.8125 C131.93287226 121.89873668 121.40829379 134.12645194 115 145 C113.56233754 148.37069681 113.56233754 148.37069681 113 151 C112.34 151 111.68 151 111 151 C109.85855738 153.89023038 108.73706967 156.78596903 107.625 159.6875 C107.14933594 160.88342773 107.14933594 160.88342773 106.6640625 162.10351562 C102.63794229 172.71401994 101.69647284 183.56971807 101.74831772 194.84233189 C101.74541084 195.96468659 101.74250396 197.08704129 101.73950899 198.24340674 C101.73224267 201.98325482 101.73913667 205.72293709 101.74603271 209.46278381 C101.74483519 212.179573 101.74063137 214.89635573 101.73657823 217.61314195 C101.72937714 223.50917072 101.72956022 229.40516281 101.73467255 235.30119324 C101.7422541 244.06891271 101.73836144 252.83660138 101.73225593 261.60432066 C101.72173571 277.26540957 101.72263272 292.92648215 101.72841376 308.58757261 C101.73344774 322.29235095 101.73475693 335.99712331 101.73236847 349.70190239 C101.7322157 350.61148346 101.73206293 351.52106453 101.73190553 352.45820866 C101.73128284 356.15061801 101.73064604 359.84302736 101.729986 363.53543671 C101.72387017 398.16169172 101.72941158 432.78793634 101.7401798 467.41418974 C101.74967156 498.16976813 101.74882083 528.92532996 101.73925781 559.6809082 C101.7285462 594.24593069 101.72430313 628.810944 101.73048234 663.37596792 C101.73112376 667.06128307 101.73174944 670.74659822 101.73236847 674.43191338 C101.73252662 675.33931281 101.73268478 676.24671225 101.73284773 677.18160863 C101.73512162 690.87763177 101.7324641 704.57364827 101.72740936 718.26967049 C101.72169018 733.84357995 101.723122 749.41747054 101.73397085 764.99137766 C101.73984074 773.7049974 101.74023062 782.41857627 101.7326785 791.13219495 C101.72818862 796.95530801 101.73099413 802.77838835 101.73968804 808.60149657 C101.74443743 811.9173614 101.7449847 815.23307864 101.73887607 818.54895116 C101.73278961 822.1272149 101.73903808 825.70525702 101.74831772 829.28350925 C101.74363539 830.30392837 101.73895305 831.32434749 101.73412883 832.3756884 C101.86711811 858.05502227 112.35502408 878.84749765 129.8125 897.1875 C140.43372949 907.53390315 154.31665395 914.42893065 168.375 918.875 C169.01655029 919.07818848 169.65810059 919.28137695 170.3190918 919.49072266 C178.58036922 921.95343408 186.63978891 922.14615148 195.18189144 922.13142776 C196.29360219 922.1334804 197.40531294 922.13553303 198.5507119 922.13764787 C202.28446503 922.14331263 206.0181812 922.14186125 209.75193787 922.14044189 C212.45259697 922.14302583 215.1532531 922.14600035 217.85391098 922.1494453 C224.50335739 922.15701365 231.15279576 922.15921776 237.80224602 922.15977435 C245.76810159 922.16068915 253.73394976 922.16736014 261.69980214 922.17412117 C280.95224003 922.1901719 300.20467712 922.19608346 319.45712051 922.20086992 C328.56744922 922.20320686 337.67777731 922.20680963 346.78810553 922.2105653 C377.98259664 922.22340017 409.17708739 922.23411926 440.37158108 922.2375679 C442.32935427 922.23778953 444.28712746 922.23801132 446.24490065 922.23823325 C448.20736355 922.23845389 450.16982645 922.23867438 452.13228935 922.2388947 C456.06923131 922.23933725 460.00617327 922.23978437 463.94311523 922.24023438 C464.91924605 922.24034377 465.89537686 922.24045316 466.90108739 922.24056586 C498.5459943 922.24419579 530.19087828 922.26011377 561.83577641 922.28342474 C595.3039321 922.30803366 628.77207469 922.32174124 662.24023968 922.32293582 C665.91589264 922.32310727 669.5915456 922.3233227 673.26719856 922.32357025 C674.62474134 922.3236539 674.62474134 922.3236539 676.00970923 922.32373925 C690.55967084 922.32488878 705.10960888 922.33590252 719.65956253 922.35045731 C734.29103842 922.36484028 748.92248418 922.36804913 763.5539652 922.36001733 C772.23986935 922.35556953 780.92567607 922.35938759 789.61156736 922.37525584 C795.42276025 922.38503811 801.23388523 922.38379674 807.04507757 922.37381961 C810.35017848 922.3684508 813.65494195 922.36932315 816.96005099 922.38032833 C842.33736281 922.62010416 842.33736281 922.62010416 866.375 915.25 C867.12265625 914.89929443 867.8703125 914.54858887 868.640625 914.18725586 C884.88732913 906.40296239 900.66906269 894.34145395 909 878 C909.5775 877.0925 910.155 876.185 910.75 875.25 C912.24282147 872.99190595 912.24282147 872.99190595 912 870 C912.66 870 913.32 870 914 870 C914.78556749 867.98484861 915.55233296 865.96236974 916.3125 863.9375 C916.74175781 862.81214844 917.17101562 861.68679688 917.61328125 860.52734375 C922.46766182 845.53279972 922.41292931 830.95837073 922.34057617 815.33813477 C922.3397287 812.76452647 922.34020738 810.19091745 922.34190369 807.61730957 C922.34346696 802.1041326 922.33415769 796.5910632 922.31719017 791.07791328 C922.29267502 783.10711488 922.2849822 775.13636781 922.2812262 767.1655358 C922.2746812 754.22938706 922.25477337 741.29329549 922.22631836 728.35717773 C922.19872701 715.80053999 922.17751837 703.24391785 922.16479492 690.68725586 C922.16361267 689.52375837 922.16361267 689.52375837 922.16240653 688.33675588 C922.15849105 684.4449729 922.15470001 680.5531898 922.15097082 676.66140664 C922.11993576 644.44089623 922.06715358 612.22045609 922 580 C920.78618652 579.93868896 919.57237305 579.87737793 918.32177734 579.81420898 C916.70148989 579.72914683 915.08121035 579.64393371 913.4609375 579.55859375 C912.26585571 579.49883362 912.26585571 579.49883362 911.04663086 579.43786621 C906.19621807 579.17886359 901.43566466 578.73500769 896.625 578.0625 C887.67155054 576.84816576 878.68427558 576.28144477 869.67041016 575.69750977 C868.50815918 575.62072998 867.3459082 575.5439502 866.1484375 575.46484375 C865.10864746 575.399021 864.06885742 575.33319824 862.99755859 575.26538086 C860 575 860 575 857.22924805 574.51586914 C852.89351611 573.82324031 848.56277426 573.56206695 844.18359375 573.28125 C843.24951187 573.21844849 842.31542999 573.15564697 841.3530426 573.09094238 C837.3753868 572.8235174 833.39729497 572.56288392 829.41918945 572.30224609 C826.50713776 572.11044143 823.59536768 571.91471922 820.68359375 571.71875 C819.78764999 571.661427 818.89170624 571.604104 817.96861267 571.54504395 C817.12746414 571.48828491 816.28631561 571.43152588 815.41967773 571.37304688 C814.68498764 571.32498901 813.95029755 571.27693115 813.19334412 571.22741699 C811 571 811 571 808.52592468 570.5 C806.04696987 570.00929756 803.68638486 569.77563658 801.16552734 569.62695312 C800.23461273 569.57019409 799.30369812 569.51343506 798.34457397 569.45495605 C797.35172394 569.39763306 796.3588739 569.34031006 795.3359375 569.28125 C793.22395761 569.15235554 791.11197847 569.02344893 789 568.89453125 C785.67747403 568.69598766 782.35487027 568.49880915 779.03222656 568.30224609 C775.8207528 568.11107565 772.60959853 567.91509274 769.3984375 567.71875 C768.401539 567.661427 767.4046405 567.604104 766.37753296 567.54504395 C765.45292267 567.48828491 764.52831238 567.43152588 763.57568359 567.37304688 C762.7624765 567.32498901 761.94926941 567.27693115 761.11141968 567.22741699 C759 567 759 567 756 566 C748.68086314 565.09764066 741.36709477 564.85331006 734 565 C738.39296584 557.69901453 743.24362536 550.89162404 748.38818359 544.1105957 C751.61954702 539.84897875 754.78612585 535.55340663 757.875 531.1875 C762.37232725 524.83913867 766.98169918 518.5773936 771.60791016 512.32250977 C775.69750976 506.78642621 779.73557121 501.21575957 783.75 495.625 C788.29993785 489.29432476 792.97034321 483.08027895 797.75 476.921875 C801.76163685 471.71231881 805.58100762 466.36642412 809.41748047 461.02734375 C815.74103312 452.23143965 822.10452729 443.47431253 828.62451172 434.82275391 C832.830961 429.2385922 836.97067333 423.60786122 841.09765625 417.96484375 C844.32516311 413.55194949 847.56839456 409.15069956 850.8125 404.75 C851.40071533 403.95174805 851.98893066 403.15349609 852.5949707 402.33105469 C855.57655435 398.28534363 858.56017984 394.24115786 861.546875 390.19921875 C867.22007618 382.51718504 872.864526 374.81761127 878.4375 367.0625 C883.64336712 359.82321515 888.96210534 352.67466825 894.328125 345.5534668 C899.30200678 338.94881464 904.2140526 332.30071909 909.08178711 325.61743164 C909.6103833 324.89547607 910.13897949 324.17352051 910.68359375 323.4296875 C911.17829509 322.74645605 911.67299643 322.0632246 912.18268871 321.35928917 C914 319 914 319 916.04026508 316.81752968 C922.07305273 310.18604047 923.14551561 305.36423707 922.95581055 296.55224609 C922.96179764 295.34753662 922.96778473 294.14282715 922.97395325 292.90161133 C922.98196233 289.62334083 922.95455914 286.34780204 922.9099462 283.06990004 C922.87073826 279.61547073 922.87519411 276.16106458 922.87397766 272.70645142 C922.86567897 266.90108625 922.82722732 261.09656569 922.76831055 255.29150391 C922.70077113 248.6215871 922.67069257 241.95239229 922.6633355 235.28215349 C922.65539526 228.13099615 922.6245216 220.9800853 922.58454156 213.829041 C922.57431665 211.79293312 922.56769542 209.75683888 922.56171227 207.72071457 C922.42455693 175.09744883 917.03591675 150.03045993 893.4375 126.1875 C870.86299729 104.23574219 843.32336541 101.53485977 813.16577148 101.61904907 C810.45733557 101.6155882 807.74892483 101.61094287 805.04049587 101.60486734 C799.17497979 101.59408998 793.30954673 101.59432516 787.44402695 101.60200882 C778.72148492 101.61340378 769.99901232 101.60753051 761.27647069 101.5983839 C745.69379515 101.58262072 730.1111566 101.58394225 714.52847758 101.59262064 C700.89152952 101.60017778 687.25459499 101.60213253 673.61764526 101.5985527 C672.25893357 101.59820897 672.25893357 101.59820897 670.87277316 101.59785829 C667.19547916 101.59692422 663.51818517 101.59596902 659.84089118 101.594979 C625.36980928 101.58580925 590.89875088 101.59411089 556.42767261 101.61026969 C525.82579258 101.6245057 495.22395001 101.62323178 464.62207031 101.60888672 C430.2126168 101.59281058 395.80318405 101.58645966 361.3937273 101.59572351 C357.72326979 101.59668561 354.05281226 101.59762414 350.38235474 101.5985527 C349.02678971 101.59890855 349.02678971 101.59890855 347.64383953 101.59927159 C334.01799628 101.60267895 320.39216807 101.59870262 306.7663269 101.59111404 C291.26767396 101.58252531 275.76906367 101.58470412 260.27041602 101.60095628 C251.60446697 101.60974465 242.93861038 101.61036988 234.27266378 101.59901775 C228.47508263 101.59226292 222.67757521 101.59652698 216.88000493 101.60953206 C213.58287742 101.61662871 210.28596757 101.61751852 206.98883998 101.60831411 C182.36861883 101.46470501 182.36861883 101.46470501 158.8125 108 Z " fill="#000000" transform="translate(0,0)"/>
<path d="M0 0 C36.52750848 -0.06877122 73.05500554 -0.12158203 109.58256551 -0.15319599 C113.90180485 -0.1569478 118.22104406 -0.16083079 122.5402832 -0.16479492 C123.40011159 -0.16558185 124.25993999 -0.16636878 125.14582378 -0.16717956 C139.04062421 -0.18020869 152.93538714 -0.2038487 166.83016538 -0.23145839 C181.10343176 -0.25958214 195.3766786 -0.27619095 209.64997154 -0.28226548 C218.44669475 -0.28636752 227.24331193 -0.29929045 236.04000247 -0.3237494 C242.08452866 -0.33969279 248.12900059 -0.34438105 254.17354625 -0.34050413 C257.6531077 -0.33859586 261.13248479 -0.34137521 264.61201286 -0.35761642 C296.52528034 -0.48457129 322.12803971 4.19109557 345.6875 27.4375 C363.41992879 45.66873128 371.21296622 68.31995604 371.36987305 93.640625 C371.38462173 94.85351196 371.39937042 96.06639893 371.41456604 97.31604004 C371.45876757 101.29398865 371.48741686 105.27189529 371.51171875 109.25 C371.52114481 110.63008673 371.53063945 112.01017299 371.54020119 113.39025879 C371.57859269 119.13300731 371.61181015 124.8757423 371.63057232 130.61859131 C371.65739227 138.80159033 371.71509256 146.98301143 371.81633729 155.16543961 C371.88541394 160.94838069 371.91955859 166.73090409 371.92813712 172.51424789 C371.93410825 175.95636047 371.95469454 179.39683877 372.01270103 182.83850098 C372.36512206 206.95130215 372.36512206 206.95130215 366.65625 213.98046875 C365.13704338 215.35747826 363.5870747 216.70179438 362 218 C360.80943984 219.48909423 359.6523181 221.00639855 358.55078125 222.5625 C358.02025146 223.28638916 357.48972168 224.01027832 356.94311523 224.75610352 C356.40501221 225.49658936 355.86690918 226.2370752 355.3125 227 C354.10167538 228.65503051 352.89073452 230.30997598 351.6796875 231.96484375 C351.07092773 232.79870605 350.46216797 233.63256836 349.83496094 234.49169922 C347.46346328 237.73341914 345.07599969 240.96319061 342.68847656 244.19311523 C337.60175091 251.07636571 332.55702037 257.98707285 327.5625 264.9375 C322.21640234 272.37433309 316.74510707 279.71153736 311.23681641 287.02880859 C307.48846064 292.00939367 303.77893205 297.01313079 300.12890625 302.06640625 C297.23126731 306.05929954 294.30295158 310.02930345 291.375 314 C290.77494141 314.81404297 290.17488281 315.62808594 289.55664062 316.46679688 C286.52037118 320.58491843 283.48199922 324.70147604 280.44140625 328.81640625 C274.71039567 336.57701694 269.00825499 344.3555726 263.375 352.1875 C258.84888759 358.47777532 254.25017127 364.7064374 249.5871582 370.89575195 C240.4972245 382.96662517 231.58305292 395.16468715 222.76074219 407.43212891 C218.68194842 413.089931 214.511391 418.67341018 210.31030273 424.24072266 C206.70731488 429.02680787 203.19691381 433.87095751 199.7355957 438.76025391 C197.52093021 441.88468197 195.28112554 444.98717492 193.00390625 448.06640625 C192.50318604 448.74372803 192.00246582 449.4210498 191.48657227 450.11889648 C190.51964337 451.42375028 189.5502101 452.72675325 188.57788086 454.02758789 C186.43950591 456.91453168 184.44502209 459.69943818 183 463 C183.58265625 462.98839844 184.1653125 462.97679687 184.765625 462.96484375 C201.34703196 462.78234399 201.34703196 462.78234399 208 465 C209.52148847 465.16387662 211.04806038 465.28276937 212.57568359 465.37304688 C213.50029388 465.42980591 214.42490417 465.48656494 215.37753296 465.54504395 C216.37443146 465.60236694 217.37132996 465.65968994 218.3984375 465.71875 C219.4255484 465.78155151 220.4526593 465.84435303 221.51089478 465.90905762 C224.79871106 466.10987554 228.08680578 466.30547493 231.375 466.5 C234.65603844 466.69472752 237.93697611 466.8906842 241.21768188 467.09094238 C243.25978102 467.21557201 245.30207672 467.33703083 247.34457397 467.45495605 C248.27548859 467.51171509 249.2064032 467.56847412 250.16552734 467.62695312 C251.38772476 467.69903992 251.38772476 467.69903992 252.63461304 467.77258301 C255.14036359 468.01349507 257.53420685 468.50005683 260 469 C261.40182043 469.14690623 262.80682851 469.26608466 264.21337891 469.35717773 C265.01256744 469.41070908 265.81175598 469.46424042 266.63516235 469.51939392 C267.4903244 469.57357986 268.34548645 469.62776581 269.2265625 469.68359375 C270.1288559 469.74402359 271.03114929 469.80445343 271.96078491 469.86671448 C275.7967743 470.12360148 279.63323418 470.37306757 283.46972656 470.62231445 C294.12383139 471.31887222 304.74013482 472.1207437 315.35343933 473.29122925 C323.54652311 474.18982588 331.75553664 474.75002478 339.97851562 475.29882812 C341.09806641 475.37681641 342.21761719 475.45480469 343.37109375 475.53515625 C344.36036865 475.600979 345.34964355 475.66680176 346.36889648 475.73461914 C349 476 349 476 353 477 C358.94 477.33 364.88 477.66 371 478 C371 548.95 371 619.9 371 693 C366.60046178 691.74298908 363.00310073 690.6721589 358.9375 688.875 C352.08784927 685.95675437 345.10281303 683.44931517 338.09350586 680.94287109 C330.4511406 678.20128291 322.86669424 675.3606246 315.5 671.9375 C311.56769531 670.15827059 307.59741597 668.95570456 303.453125 667.7734375 C300.34804184 666.79444631 297.4845227 665.46570453 294.53515625 664.09765625 C291.46536011 662.76851493 288.34461926 661.66801157 285.1875 660.5625 C280.78856521 659.02099294 276.47157946 657.39853405 272.1875 655.5625 C267.35249526 653.50326567 262.46284383 651.71862254 257.5 650 C251.6072103 647.95774523 245.84501057 645.74492856 240.109375 643.2890625 C235.68166321 641.45345334 231.19200034 639.79475775 226.69311523 638.14257812 C222.39988841 636.55792102 218.20212672 634.81652065 214 633 C203.79263027 628.77370125 193.52982742 624.76026517 183.08886719 621.14916992 C175.96035252 618.67067385 168.9856333 615.85234281 162 613 C153.8582519 609.68855148 145.69846104 606.50137016 137.4375 603.5 C130.57359883 601.00472391 123.85437575 598.32024628 117.17578125 595.359375 C113.49335667 593.78313422 109.75759008 592.38342722 106 591 C82.14249294 582.13808389 82.14249294 582.13808389 72.93359375 578.18359375 C68.33794184 576.32942261 63.65251389 574.73061089 58.95922852 573.1418457 C55.88441357 572.08726191 53.01559832 571.00790455 50.109375 569.53515625 C45.1066953 567.06524027 39.80472822 565.45641234 34.51953125 563.69335938 C29.73135583 562.06218277 25.26806783 560.22217809 20.78271484 557.88598633 C18.34541242 556.6746784 15.84913367 555.85912713 13.25 555.0625 C8.08509589 553.40558841 3.14894027 551.42761431 -1.8359375 549.296875 C-6.48559247 547.39109049 -11.22121937 545.75460096 -15.96875 544.11328125 C-19 543 -19 543 -21.140625 541.86328125 C-23.32686905 540.84823937 -24.85475769 540.79515859 -27.25 540.875 C-29.10625 540.936875 -29.10625 540.936875 -31 541 C-31.98163422 542.93625098 -32.96022454 544.87404539 -33.9375 546.8125 C-34.48277344 547.89144531 -35.02804687 548.97039063 -35.58984375 550.08203125 C-37.0585207 552.96211527 -37.0585207 552.96211527 -38 556 C-38.66 556 -39.32 556 -40 556 C-40.09163422 556.67467316 -40.18326843 557.34934631 -40.27767944 558.04446411 C-41.18307058 561.74907417 -42.81019283 564.92719286 -44.55712891 568.28857422 C-45.28965371 569.72499055 -46.02167459 571.16166397 -46.75323486 572.59857178 C-47.12797188 573.33054527 -47.50270889 574.06251877 -47.88880157 574.81667328 C-49.61183993 578.20216736 -51.28729376 581.61062508 -52.96240234 585.02001953 C-53.63678159 586.38886781 -54.31137613 587.75761003 -54.98617554 589.12625122 C-55.3280125 589.81965733 -55.66984947 590.51306343 -56.02204514 591.22748184 C-58.28465782 595.81128998 -60.55703782 600.39026608 -62.82922935 604.96933174 C-64.80303055 608.94827963 -66.77221963 612.92937977 -68.73144531 616.91552734 C-70.65559451 620.82977685 -72.59196147 624.73776942 -74.53636551 628.64199448 C-75.26369483 630.10755845 -75.98687163 631.57519245 -76.70536423 633.0451088 C-94.20757266 668.82053578 -124.02577594 697.53926094 -161.99609375 710.69140625 C-166.94709782 712.32926204 -171.94580495 713.71954172 -177 715 C-178.25554687 715.32226562 -179.51109375 715.64453125 -180.8046875 715.9765625 C-200.11914063 720.13480492 -221.84569032 719.84552266 -241 715 C-242.22332031 714.69835937 -243.44664062 714.39671875 -244.70703125 714.0859375 C-268.01139003 707.87480829 -288.67510144 695.64495749 -306 679 C-306.95519531 678.10796875 -307.91039062 677.2159375 -308.89453125 676.296875 C-320.4094789 665.35079625 -330.08607681 652.34292375 -337 638 C-337 637.01 -337 636.02 -337 635 C-337.66 635 -338.32 635 -339 635 C-342.56861995 625.06734113 -346.05229633 615.13896143 -349 605 C-349.32291016 603.93265625 -349.32291016 603.93265625 -349.65234375 602.84375 C-355.78713617 580.99135072 -353.59783224 553.4451453 -347 532 C-346.77538086 531.24090332 -346.55076172 530.48180664 -346.31933594 529.69970703 C-337.66731153 500.97926794 -319.12580604 474.79148394 -295 457 C-294.00871094 456.25492188 -293.01742187 455.50984375 -291.99609375 454.7421875 C-283.78334231 448.79676008 -275.19077727 444.22895895 -266 440 C-264.94683594 439.5153125 -263.89367187 439.030625 -262.80859375 438.53125 C-232.44836639 425.27139038 -195.90193281 426.67851571 -163.70336914 431.49291992 C-159.5780618 432.05777346 -155.47700586 432.37537449 -151.32421875 432.6484375 C-149.60660217 432.76643423 -147.88899174 432.88452066 -146.17138672 433.00268555 C-144.82847565 433.09373062 -144.82847565 433.09373062 -143.45843506 433.18661499 C-123.61409238 434.53575404 -103.80461305 436.16215397 -84 438 C-83.80857422 436.28707764 -83.80857422 436.28707764 -83.61328125 434.53955078 C-83.05516775 430.08453925 -82.15637501 425.74822566 -81.1875 421.3671875 C-78.87922036 410.66272563 -76.92721552 399.90347979 -75 389.125 C-67.88848428 349.50469023 -67.88848428 349.50469023 -64.4375 334.375 C-62.73198017 326.71954166 -61.30943034 319.08444806 -60.15942383 311.32788086 C-58.85280236 302.68151785 -57.07340506 294.13680494 -55.328125 285.5703125 C-53.95577024 278.82796192 -52.66162058 272.07165093 -51.375 265.3125 C-49.91818558 257.67261609 -48.39213795 250.0619251 -46.72143555 242.46606445 C-45.97163273 238.8637123 -45.32985861 235.25534306 -44.70703125 231.62890625 C-42.7210206 220.22506023 -40.50783779 208.86501887 -38.3125 197.5 C-37.86883533 195.19809121 -37.42523268 192.89617047 -36.98168945 190.59423828 C-33.91096902 174.66872306 -30.81765015 158.74763576 -27.69970703 142.83129883 C-26.28268362 135.59511364 -24.87236798 128.35808598 -23.5 121.11328125 C-23.27481689 119.92686035 -23.04963379 118.74043945 -22.81762695 117.51806641 C-22.41982444 115.41546204 -22.02476052 113.312336 -21.63354492 111.20849609 C-20.72722379 106.41919856 -19.69564207 101.69864991 -18.484375 96.9765625 C-17.06481251 91.41447893 -15.99946018 85.84851076 -15.0625 80.1875 C-14.72270988 78.18879297 -14.38286443 76.19009534 -14.04296875 74.19140625 C-13.87200684 73.17578613 -13.70104492 72.16016602 -13.52490234 71.11376953 C-12.65419713 65.9486652 -11.76589707 60.78665329 -10.875 55.625 C-10.71652588 54.69324951 -10.55805176 53.76149902 -10.39477539 52.80151367 C-10.24129639 51.91052979 -10.08781738 51.0195459 -9.9296875 50.1015625 C-9.79804199 49.33150879 -9.66639648 48.56145508 -9.53076172 47.76806641 C-9.0874442 45.45604522 -8.59421784 43.16966058 -8.07473755 40.87411499 C-7.06443382 36.34508728 -6.15144656 31.80237188 -5.2734375 27.24609375 C-5.12089508 26.45977066 -4.96835266 25.67344757 -4.81118774 24.86329651 C-4.3313118 22.3882515 -3.85312505 19.91288378 -3.375 17.4375 C-3.04698742 15.74411885 -2.71886339 14.05075927 -2.390625 12.35742188 C-1.5924636 8.23852922 -0.79581539 4.11934655 0 0 Z " fill="#FDFDFD" transform="translate(551,102)"/>
<path d="M0 0 C7.52149802 -0.07693452 15.04289224 -0.12896543 22.56469727 -0.16479492 C25.11616813 -0.17975343 27.66761386 -0.20012755 30.21899414 -0.22631836 C61.39264775 -0.53799378 86.94018624 3.54046584 110.25439453 26.0234375 C127.77934909 43.31552214 136.98123577 65.5266949 137.34881592 90.24255371 C137.35576477 91.36391724 137.36271362 92.48528076 137.36987305 93.640625 C137.38462173 94.85351196 137.39937042 96.06639893 137.41456604 97.31604004 C137.45876757 101.29398865 137.48741686 105.27189529 137.51171875 109.25 C137.52114481 110.63008673 137.53063945 112.01017299 137.54020119 113.39025879 C137.57859269 119.13300731 137.61181015 124.8757423 137.63057232 130.61859131 C137.65739227 138.80159033 137.71509256 146.98301143 137.81633729 155.16543961 C137.88541394 160.94838069 137.91955859 166.73090409 137.92813712 172.51424789 C137.93410825 175.95636047 137.95469454 179.39683877 138.01270103 182.83850098 C138.36512206 206.95130215 138.36512206 206.95130215 132.65625 213.98046875 C131.13704338 215.35747826 129.5870747 216.70179438 128 218 C126.80943984 219.48909423 125.6523181 221.00639855 124.55078125 222.5625 C123.75498657 223.64833374 123.75498657 223.64833374 122.94311523 224.75610352 C122.40501221 225.49658936 121.86690918 226.2370752 121.3125 227 C120.10167538 228.65503051 118.89073452 230.30997598 117.6796875 231.96484375 C117.07092773 232.79870605 116.46216797 233.63256836 115.83496094 234.49169922 C113.46346328 237.73341914 111.07599969 240.96319061 108.68847656 244.19311523 C103.60175091 251.07636571 98.55702037 257.98707285 93.5625 264.9375 C88.21640234 272.37433309 82.74510707 279.71153736 77.23681641 287.02880859 C73.48846064 292.00939367 69.77893205 297.01313079 66.12890625 302.06640625 C63.23126731 306.05929954 60.30295158 310.02930345 57.375 314 C56.77494141 314.81404297 56.17488281 315.62808594 55.55664062 316.46679688 C52.52037118 320.58491843 49.48199922 324.70147604 46.44140625 328.81640625 C40.71039567 336.57701694 35.00825499 344.3555726 29.375 352.1875 C24.84888759 358.47777532 20.25017127 364.7064374 15.5871582 370.89575195 C6.4972245 382.96662517 -2.41694708 395.16468715 -11.23925781 407.43212891 C-15.31805158 413.089931 -19.488609 418.67341018 -23.68969727 424.24072266 C-27.29268512 429.02680787 -30.80308619 433.87095751 -34.2644043 438.76025391 C-36.47906979 441.88468197 -38.71887446 444.98717492 -40.99609375 448.06640625 C-41.49681396 448.74372803 -41.99753418 449.4210498 -42.51342773 450.11889648 C-43.48035663 451.42375028 -44.4497899 452.72675325 -45.42211914 454.02758789 C-47.57158796 456.92950912 -49.44663627 459.74411431 -51 463 C-61.1049262 462.37075551 -71.18901385 461.59528543 -81.2734375 460.69775391 C-83.52581928 460.49770684 -85.77851247 460.3014647 -88.03125 460.10546875 C-89.48960326 459.97678817 -90.94793735 459.84788998 -92.40625 459.71875 C-94.34467773 459.54762695 -94.34467773 459.54762695 -96.32226562 459.37304688 C-98.73076924 459.128743 -101.13487885 458.83488105 -103.53051758 458.48632812 C-107.0610879 457.99143712 -110.54738429 457.7149871 -114.10546875 457.5 C-115.41837891 457.4175 -116.73128906 457.335 -118.08398438 457.25 C-120.14438276 457.12385819 -122.20484985 456.99895628 -124.26538086 456.875 C-126.27476837 456.75311795 -128.28387419 456.62661945 -130.29296875 456.5 C-131.4843042 456.4278125 -132.67563965 456.355625 -133.90307617 456.28125 C-137 456 -137 456 -138.80415344 455.51622009 C-141.61279079 454.85593943 -144.35236624 454.66820858 -147.23046875 454.45922852 C-149.12394043 454.31886925 -149.12394043 454.31886925 -151.05566406 454.17567444 C-151.72827271 454.12741076 -152.40088135 454.07914707 -153.09387207 454.02942085 C-155.21487831 453.87693798 -157.33548849 453.71974227 -159.45605469 453.56126404 C-165.48470331 453.11158008 -171.51396429 452.67038508 -177.54345703 452.23217773 C-181.23779213 451.96335392 -184.93169206 451.68907049 -188.62539673 451.411726 C-190.02202987 451.30798132 -191.41881831 451.2063028 -192.81576538 451.10687447 C-201.31042425 450.50208806 -209.62827504 449.57673113 -218 448 C-217.49348852 442.74200829 -216.17821902 438.67791654 -213.71875 433.984375 C-213.38927368 433.33523132 -213.05979736 432.68608765 -212.72033691 432.01727295 C-211.65570969 429.92354771 -210.57779475 427.83697214 -209.5 425.75 C-208.39316519 423.57914561 -207.29012612 421.40639301 -206.1875 419.23339844 C-205.46070161 417.80121625 -204.73284359 416.36957128 -204.00390625 414.93847656 C-201.23918563 409.50340308 -198.57763732 404.02646387 -196 398.5 C-193.12309434 392.3478993 -190.14961349 386.25740106 -187.08789062 380.1953125 C-184.30841401 374.66925249 -181.6469475 369.09056595 -179 363.5 C-175.15325644 355.38313144 -171.20814474 347.32591058 -167.16162109 339.30712891 C-164.21129779 333.44740733 -161.28640127 327.57488257 -158.35424805 321.70605469 C-154.0219802 313.03740283 -154.0219802 313.03740283 -152.0625 309.16015625 C-147.96408842 301.03229674 -144.04085596 292.82681017 -140.12573242 284.609375 C-135.6461993 275.22324605 -130.99879623 265.92849578 -126.3046875 256.6484375 C-122.3425827 248.77951309 -118.53571143 240.84632749 -114.7644043 232.88452148 C-111.90840147 226.86877789 -108.9711781 220.90134429 -105.96899414 214.95751953 C-103.04065477 209.13611314 -100.25034865 203.25263175 -97.49584961 197.34716797 C-94.20405848 190.32541052 -90.72200429 183.40037114 -87.24121094 176.47113037 C-83.27598068 168.57674221 -79.31915388 160.67813232 -75.36230469 152.77954102 C-74.28097707 150.62196167 -73.19893735 148.46473907 -72.11621094 146.30786133 C-70.52869202 143.14499479 -68.94379193 139.98082762 -67.359375 136.81640625 C-66.88014587 135.86310928 -66.40091675 134.90981232 -65.90716553 133.92762756 C-63.11703385 128.34782801 -60.47521982 122.72668256 -58 117 C-57.34 117 -56.68 117 -56 117 C-55.855625 116.236875 -55.71125 115.47375 -55.5625 114.6875 C-55 112 -55 112 -54 109 C-53.34 109 -52.68 109 -52 109 C-51.85534302 107.72854126 -51.85534302 107.72854126 -51.70776367 106.43139648 C-50.92040734 102.614117 -49.4740164 99.51164326 -47.67578125 96.09765625 C-46.94441707 94.67224659 -46.21348694 93.24661417 -45.48291016 91.82080078 C-45.08428772 91.04907532 -44.68566528 90.27734985 -44.27496338 89.48223877 C-41.93249321 84.92166051 -39.64866513 80.33158687 -37.35546875 75.74609375 C-36.33804809 73.71541589 -35.32046746 71.68481817 -34.30273438 69.65429688 C-33.78928467 68.62941162 -33.27583496 67.60452637 -32.74682617 66.54858398 C-31.71337405 64.48669572 -30.67920287 62.42516769 -29.64428711 60.36401367 C-23.6046039 48.33357875 -17.65659057 36.26827561 -11.87773132 24.11021423 C-8.02673248 16.01812135 -4.04940618 7.99438641 0 0 Z " fill="#35A6DB" transform="translate(785,102)"/>
<path d="M0 0 C68.64 0 137.28 0 208 0 C207.33890609 7.93312688 206.53353355 15.09143418 204.8125 22.75 C202.74603457 32.30692794 200.84816448 41.88717775 199.0625 51.5 C198.80974377 52.85636593 198.55697678 54.21272985 198.30419922 55.5690918 C197.27396753 61.10513624 196.24995907 66.64232359 195.22949219 72.18017578 C194.46861812 76.30819904 193.70472997 80.43565325 192.9375 84.5625 C192.74959396 85.57366379 192.74959396 85.57366379 192.55789185 86.60525513 C190.83993443 95.82230126 188.94961497 104.98580774 186.89428711 114.13330078 C185.03838955 122.52807757 183.51061358 130.97557853 182 139.4375 C180.32866985 148.79800246 178.61690954 158.13858142 176.625 167.4375 C173.29670859 183.00429635 170.4208822 198.66041868 167.46229553 214.30064392 C165.98094952 222.12243233 164.46263756 229.93664271 162.9375 237.75 C161.32676808 246.00733432 159.75757592 254.27017286 158.25 262.546875 C158.10089172 263.36529373 157.95178345 264.18371246 157.79815674 265.02693176 C157.1950973 268.33850251 156.5921269 271.65008941 155.98962402 274.96176147 C154.05738927 285.55862058 152.02574372 296.11629795 149.59741211 306.61328125 C148.56358973 311.12914121 147.72762525 315.62285655 147.05078125 320.20703125 C145.98134762 327.40922095 144.51395766 334.50490207 143 341.625 C141.21636564 350.06635867 139.49681937 358.50312347 138 367 C129.51145302 414.84935749 129.51145302 414.84935749 124 438 C115.25492893 438.10621544 106.69980864 438.01286753 98 437 C97.99613281 435.91912109 97.99613281 435.91912109 97.9921875 434.81640625 C97.57335157 423.18672849 94.61720225 412.28378332 91.77001953 401.05126953 C90.70584451 396.83438323 89.69094711 392.60668233 88.6875 388.375 C88.49720215 387.57553955 88.3069043 386.7760791 88.11083984 385.95239258 C86.03899103 377.21894045 84.00628127 368.47627563 81.97964478 359.73223877 C81.58273669 358.02076422 81.18511588 356.30945476 80.78671265 354.59832764 C78.59483744 345.17860861 76.49096092 335.75681674 74.64892578 326.26196289 C73.18286402 318.89249293 71.41281611 311.59374395 69.5625 304.3125 C68.34537487 299.50019371 67.25678878 294.66566215 66.19921875 289.81640625 C64.23546427 280.90035519 62.07789635 272.03841029 59.88171387 263.17724609 C56.32861382 248.82203531 52.91772624 234.44522091 49.75 220 C49.58601715 219.25226318 49.4220343 218.50452637 49.25308228 217.73413086 C49.00949478 216.6234021 49.00949478 216.6234021 48.76098633 215.49023438 C46.24491109 204.02537398 43.54182792 192.61326208 40.77392578 181.20654297 C37.0443065 165.75391846 33.36285857 150.2963552 30.34057617 134.68774414 C29.29337778 129.32552988 28.06424398 124.03554293 26.70361328 118.74267578 C24.93916457 111.8501415 23.30762212 104.92773972 21.6875 98 C21.53741486 97.35823822 21.38732971 96.71647644 21.23269653 96.05526733 C19.08511401 86.8539735 17.03747177 77.6345296 15.04736328 68.39770508 C10.90378936 49.16721084 6.57448665 29.9083921 1.43618774 10.91601562 C0.40640284 7.04939118 0 4.06442296 0 0 Z " fill="#0C1B44" transform="translate(343,102)"/>
<path d="M0 0 C0.33 0 0.66 0 1 0 C1 89.43 1 178.86 1 271 C-18.24379433 271 -18.24379433 271 -28.234375 269.57421875 C-35.89242408 268.56649067 -43.62538092 268.19633919 -51.32958984 267.69775391 C-52.49184082 267.62089355 -53.6540918 267.5440332 -54.8515625 267.46484375 C-55.89135254 267.399021 -56.93114258 267.33319824 -58.00244141 267.26538086 C-61 267 -61 267 -63.77075195 266.51586914 C-68.10648389 265.82324031 -72.43722574 265.56206695 -76.81640625 265.28125 C-77.75048813 265.21844849 -78.68457001 265.15564697 -79.6469574 265.09094238 C-83.6246132 264.8235174 -87.60270503 264.56288392 -91.58081055 264.30224609 C-94.49286224 264.11044143 -97.40463232 263.91471922 -100.31640625 263.71875 C-101.21235001 263.661427 -102.10829376 263.604104 -103.03138733 263.54504395 C-103.87253586 263.48828491 -104.71368439 263.43152588 -105.58032227 263.37304688 C-106.31501236 263.32498901 -107.04970245 263.27693115 -107.80665588 263.22741699 C-110 263 -110 263 -112.47407532 262.5 C-114.95303013 262.00929756 -117.31361514 261.77563658 -119.83447266 261.62695312 C-120.76538727 261.57019409 -121.69630188 261.51343506 -122.65542603 261.45495605 C-123.64827606 261.39763306 -124.6411261 261.34031006 -125.6640625 261.28125 C-127.77604239 261.15235554 -129.88802153 261.02344893 -132 260.89453125 C-135.32252597 260.69598766 -138.64512973 260.49880915 -141.96777344 260.30224609 C-145.1792472 260.11107565 -148.39040147 259.91509274 -151.6015625 259.71875 C-152.598461 259.661427 -153.5953595 259.604104 -154.62246704 259.54504395 C-155.54707733 259.48828491 -156.47168762 259.43152588 -157.42431641 259.37304688 C-158.2375235 259.32498901 -159.05073059 259.27693115 -159.88858032 259.22741699 C-162 259 -162 259 -165 258 C-166.6977458 257.78626703 -168.40071816 257.61265449 -170.10546875 257.46484375 C-171.08837891 257.37783203 -172.07128906 257.29082031 -173.08398438 257.20117188 C-174.10814453 257.11416016 -175.13230469 257.02714844 -176.1875 256.9375 C-177.22326172 256.84662109 -178.25902344 256.75574219 -179.32617188 256.66210938 C-181.88385044 256.43816517 -184.44177459 256.21759327 -187 256 C-185.40802834 251.80555456 -183.33779605 248.40836336 -180.6875 244.8125 C-180.25163574 244.21228027 -179.81577148 243.61206055 -179.36669922 242.99365234 C-178.41715529 241.68624177 -177.46557458 240.3803086 -176.51220703 239.07568359 C-174.95543212 236.9388253 -173.41172977 234.79305021 -171.87109375 232.64453125 C-166.17513604 224.7081923 -160.4057824 216.83609909 -154.52001953 209.03955078 C-150.78024911 204.07322398 -147.12735243 199.04888244 -143.5 194 C-138.86568589 187.55072899 -134.15531931 181.1666602 -129.37670898 174.82373047 C-122.54294224 165.74881242 -115.84844398 156.57434582 -109.2121582 147.35424805 C-104.00514589 140.12053123 -98.73896625 132.93972227 -93.37475586 125.82177734 C-89.16854572 120.23794517 -85.02908632 114.60753257 -80.90234375 108.96484375 C-77.67483689 104.55194949 -74.43160544 100.15069956 -71.1875 95.75 C-70.59928467 94.95174805 -70.01106934 94.15349609 -69.4050293 93.33105469 C-66.42344565 89.28534363 -63.43982016 85.24115786 -60.453125 81.19921875 C-54.77992382 73.51718504 -49.135474 65.81761127 -43.5625 58.0625 C-38.35663288 50.82321515 -33.03789466 43.67466825 -27.671875 36.5534668 C-23.25796615 30.69238407 -18.8996568 24.79303347 -14.5625 18.875 C-3.96677215 4.44690019 -3.96677215 4.44690019 0 0 Z " fill="#171A1E" transform="translate(921,309)"/>
<path d="M0 0 C4.79118991 0.29489305 8.79279476 1.96570176 13.1484375 3.875 C14.8981785 4.61049574 16.64958092 5.34204744 18.40234375 6.0703125 C19.34480957 6.46250977 20.28727539 6.85470703 21.25830078 7.25878906 C28.11562034 10.02434615 35.09121554 12.48999653 42.04614258 14.99755859 C47.34117078 16.92878315 52.40384712 18.94900624 57.39550781 21.56201172 C61.15417044 23.37891934 65.13247676 24.6156362 69.0859375 25.9375 C75.59668708 28.16150707 81.96529397 30.52751588 88.28515625 33.25390625 C92.09050435 34.80820336 95.95243045 36.15556178 99.8359375 37.5 C105.8318607 39.5763525 111.69516648 41.83431683 117.53125 44.33203125 C122.07129533 46.22266294 126.69847903 47.86593491 131.3359375 49.5 C130.66433594 50.16128906 129.99273438 50.82257812 129.30078125 51.50390625 C126.43949885 54.36518865 123.67929152 57.31533636 120.91870117 60.2734375 C89.23634609 94.2108871 53.30569426 120.12746039 10.2734375 138.0625 C9.33371094 138.45566406 8.39398437 138.84882812 7.42578125 139.25390625 C-3.05744174 143.48165357 -13.76021027 146.54521176 -24.6640625 149.5 C-25.93588379 149.84514648 -25.93588379 149.84514648 -27.23339844 150.19726562 C-54.37565311 157.42809025 -80.74956852 159.14001485 -108.6640625 158.5 C-105.43552189 155.89105406 -102.1652805 153.4189243 -98.75488281 151.05102539 C-79.66416978 137.75514576 -64.89444062 121.02028356 -54.2734375 100.3671875 C-53.76102509 99.37764069 -53.24861267 98.38809387 -52.72067261 97.36856079 C-46.6121173 85.52981582 -40.64727254 73.61819268 -34.69824219 61.69873047 C-33.09443817 58.4853626 -31.48697553 55.27384053 -29.87849617 52.0628109 C-28.61063455 49.53073598 -27.34471364 46.99769452 -26.07934189 44.46437454 C-25.20648133 42.71768843 -24.33204802 40.97178853 -23.45755005 39.22592163 C-19.71243285 31.71388291 -16.14061123 24.13987028 -12.6640625 16.5 C-12.0040625 16.5 -11.3440625 16.5 -10.6640625 16.5 C-10.6228125 15.71625 -10.5815625 14.9325 -10.5390625 14.125 C-9.71990443 10.73134513 -8.71357469 8.20049209 -7.1015625 5.125 C-6.64652344 4.25101563 -6.19148437 3.37703125 -5.72265625 2.4765625 C-3.6640625 0.5 -3.6640625 0.5 0 0 Z " fill="#2782C3" transform="translate(523.6640625,641.5)"/>
<path d="M0 0 C5.37626917 19.55280017 9.77659247 39.32474972 14.14550781 59.12182617 C16.70527579 70.72071587 19.32566887 82.29964827 22.15625 93.8359375 C22.34653778 94.61153015 22.53682556 95.3871228 22.73287964 96.18621826 C23.51782726 99.38274206 24.3032225 102.57914433 25.09326172 105.77441406 C27.39381123 115.08697759 29.53627008 124.39364809 31.36523438 133.81054688 C32.12010818 137.60349742 33.0228949 141.32100173 34 145.0625 C36.87222164 156.28151339 39.21824066 167.55481649 41 179 C37.37680389 179.51950238 36.1570738 179.11225655 33.125 176.9453125 C32.07349951 176.01622047 31.03236402 175.07531038 30 174.125 C28.84204243 173.10167333 27.68182757 172.08089603 26.51953125 171.0625 C25.639021 170.28712891 25.639021 170.28712891 24.74072266 169.49609375 C22.13635499 167.25772558 19.42579254 165.19832735 16.6875 163.125 C11.62439372 159.2872649 6.6704467 155.3314471 1.75 151.3125 C-3.10502853 147.34705567 -7.9776094 143.41794408 -12.9453125 139.59375 C-15.23509339 137.81764619 -17.49279256 136.00480439 -19.75 134.1875 C-20.99910156 133.20330078 -20.99910156 133.20330078 -22.2734375 132.19921875 C-24.26571381 130.59226809 -26.18607744 128.96254623 -28.1015625 127.26953125 C-35.02638042 121.23532016 -35.02638042 121.23532016 -43.8125 119.3125 C-45.87861651 119.50637152 -47.94121265 119.7395806 -50 120 C-51.42383372 120.08684376 -52.84843568 120.16164645 -54.2734375 120.2265625 C-61.12980713 119.9751709 -61.12980713 119.9751709 -67 122 C-68.53382495 122.1813852 -70.0753277 122.29842881 -71.6171875 122.38891602 C-72.60332031 122.44890274 -73.58945312 122.50888947 -74.60546875 122.57069397 C-75.68441406 122.63115402 -76.76335937 122.69161407 -77.875 122.75390625 C-78.98746094 122.81907944 -80.09992188 122.88425262 -81.24609375 122.95140076 C-83.61672842 123.08898076 -85.98750323 123.22416302 -88.35839844 123.35717773 C-91.9294863 123.55852427 -95.49987618 123.76987228 -99.0703125 123.98242188 C-111.39339703 124.69742749 -123.65565774 125.22525378 -136 125 C-135.22249112 121.36171164 -134.14180316 119.78595959 -131.4375 117.1875 C-130.47650391 116.24970703 -130.47650391 116.24970703 -129.49609375 115.29296875 C-127.42540113 113.39078319 -125.32866787 111.53588049 -123.20703125 109.69140625 C-119.12898142 106.13882208 -115.17967675 102.46518007 -111.25 98.75 C-105.51185663 93.34763096 -99.74064591 87.98740086 -93.921875 82.671875 C-90.79356015 79.81122345 -87.6763228 76.9389025 -84.5625 74.0625 C-84.02214111 73.56339111 -83.48178223 73.06428223 -82.92504883 72.55004883 C-81.83035108 71.53879388 -80.73570604 70.52748188 -79.64111328 69.51611328 C-76.92822414 67.00985896 -74.21405141 64.50499554 -71.5 62 C-70.41666043 61.00000676 -69.33332709 60.00000676 -68.25 59 C-48.75 41 -48.75 41 -47.12573242 39.50073242 C-46.03988283 38.49837209 -44.95410837 37.49593038 -43.8684082 36.4934082 C-41.19917637 34.02885612 -38.52875409 31.5656239 -35.85546875 29.10546875 C-34.79937007 28.13293096 -33.74338106 27.16027405 -32.6875 26.1875 C-31.90234009 25.46421509 -31.90234009 25.46421509 -31.10131836 24.72631836 C-27.9980203 21.86177141 -24.91104642 18.9807377 -21.8359375 16.0859375 C-20.77113159 15.08397339 -20.77113159 15.08397339 -19.68481445 14.06176758 C-18.3068607 12.76370439 -16.93031191 11.46414754 -15.55541992 10.1628418 C-13.71513483 8.42890191 -11.86230793 6.71024085 -10 5 C-9.45069824 4.48808105 -8.90139648 3.97616211 -8.33544922 3.44873047 C-5.2147101 0.66441701 -4.36039687 0 0 0 Z " fill="#153682" transform="translate(375,582)"/>
<path d="M0 0 C4.79118991 0.29489305 8.79279476 1.96570176 13.1484375 3.875 C14.8981785 4.61049574 16.64958092 5.34204744 18.40234375 6.0703125 C19.34480957 6.46250977 20.28727539 6.85470703 21.25830078 7.25878906 C28.11562034 10.02434615 35.09121554 12.48999653 42.04614258 14.99755859 C47.34117078 16.92878315 52.40384712 18.94900624 57.39550781 21.56201172 C61.15417044 23.37891934 65.13247676 24.6156362 69.0859375 25.9375 C75.59668708 28.16150707 81.96529397 30.52751588 88.28515625 33.25390625 C92.09050435 34.80820336 95.95243045 36.15556178 99.8359375 37.5 C105.8318607 39.5763525 111.69516648 41.83431683 117.53125 44.33203125 C122.07129533 46.22266294 126.69847903 47.86593491 131.3359375 49.5 C130.6759375 50.139375 130.0159375 50.77875 129.3359375 51.4375 C125.47940006 55.2829235 121.92760328 59.40924419 118.3359375 63.5 C107.15258356 59.3985577 95.9870434 55.25229458 84.83740234 51.06005859 C75.77004402 47.6542141 66.68639109 44.29300814 57.59570312 40.94995117 C51.13293134 38.56560382 44.72213136 36.08158251 38.3359375 33.5 C35.27709913 32.28224683 32.21364237 31.07662411 29.1484375 29.875 C28.39369141 29.5759375 27.63894531 29.276875 26.86132812 28.96875 C17.90287559 25.39303091 17.90287559 25.39303091 8.3984375 24.375 C7.62628906 24.39304687 6.85414063 24.41109375 6.05859375 24.4296875 C5.49011719 24.45289063 4.92164063 24.47609375 4.3359375 24.5 C4.05830566 25.20995117 3.78067383 25.91990234 3.49462891 26.65136719 C2.33580379 29.50032874 1.08720989 32.28640373 -0.203125 35.078125 C-0.69731934 36.14853027 -1.19151367 37.21893555 -1.70068359 38.32177734 C-2.22484863 39.45309082 -2.74901367 40.5844043 -3.2890625 41.75 C-3.82740723 42.91354004 -4.36575195 44.07708008 -4.92041016 45.27587891 C-16.8055152 70.93875736 -16.8055152 70.93875736 -22.1171875 81.43359375 C-23.24538269 83.67004129 -24.35923651 85.91075301 -25.4609375 88.16015625 C-35.88390622 109.38241242 -47.16124694 128.42382378 -63.6640625 145.5 C-64.45554687 146.33144531 -65.24703125 147.16289063 -66.0625 148.01953125 C-70.02321304 152.10178241 -70.02321304 152.10178241 -71.6640625 153.5 C-72.3240625 153.5 -72.9840625 153.5 -73.6640625 153.5 C-73.6640625 154.16 -73.6640625 154.82 -73.6640625 155.5 C-71.3540625 155.83 -69.0440625 156.16 -66.6640625 156.5 C-66.6640625 156.83 -66.6640625 157.16 -66.6640625 157.5 C-71.83126651 158.35675385 -76.77186872 158.63467581 -82.00390625 158.59765625 C-82.77086319 158.5962413 -83.53782013 158.59482635 -84.32801819 158.59336853 C-86.7525744 158.58781766 -89.17703469 158.57527463 -91.6015625 158.5625 C-93.25585803 158.55747864 -94.91015503 158.55291685 -96.56445312 158.54882812 C-100.59769262 158.53786438 -104.63086136 158.52063424 -108.6640625 158.5 C-105.43552189 155.89105406 -102.1652805 153.4189243 -98.75488281 151.05102539 C-79.66416978 137.75514576 -64.89444062 121.02028356 -54.2734375 100.3671875 C-53.76102509 99.37764069 -53.24861267 98.38809387 -52.72067261 97.36856079 C-46.6121173 85.52981582 -40.64727254 73.61819268 -34.69824219 61.69873047 C-33.09443817 58.4853626 -31.48697553 55.27384053 -29.87849617 52.0628109 C-28.61063455 49.53073598 -27.34471364 46.99769452 -26.07934189 44.46437454 C-25.20648133 42.71768843 -24.33204802 40.97178853 -23.45755005 39.22592163 C-19.71243285 31.71388291 -16.14061123 24.13987028 -12.6640625 16.5 C-12.0040625 16.5 -11.3440625 16.5 -10.6640625 16.5 C-10.6228125 15.71625 -10.5815625 14.9325 -10.5390625 14.125 C-9.71990443 10.73134513 -8.71357469 8.20049209 -7.1015625 5.125 C-6.64652344 4.25101563 -6.19148437 3.37703125 -5.72265625 2.4765625 C-3.6640625 0.5 -3.6640625 0.5 0 0 Z " fill="#226BAE" transform="translate(523.6640625,641.5)"/>
<path d="M0 0 C5.17310596 2.87394776 10.21859656 6.14832484 12.375 11.875 C13.27958906 19.07362455 13.23982101 25.33891597 8.80859375 31.2890625 C5.22791971 35.25024414 2.12995429 37.66555903 -3.296875 38.078125 C-16.09048771 38.27295159 -16.09048771 38.27295159 -21.34375 33.22265625 C-26.1062697 27.90975101 -26.98660465 23.81774698 -26.90234375 16.73046875 C-26.34355064 10.97726078 -23.95185636 6.77776291 -19.625 3 C-13.05295603 -1.65519782 -7.75647368 -2.40718149 0 0 Z " fill="#1E387A" transform="translate(303.625,581.125)"/>
<path d="M0 0 C0.66 0 1.32 0 2 0 C2.51046875 1.17755859 2.51046875 1.17755859 3.03125 2.37890625 C8.05320028 13.26425062 13.78827324 18.82155554 25 23 C25 23.66 25 24.32 25 25 C24.21496094 25.3403125 23.42992187 25.680625 22.62109375 26.03125 C11.73574938 31.05320028 6.17844446 36.78827324 2 48 C1.34 48 0.68 48 0 48 C-0.3403125 47.21496094 -0.680625 46.42992187 -1.03125 45.62109375 C-6.05320028 34.73574938 -11.78827324 29.17844446 -23 25 C-23 24.34 -23 23.68 -23 23 C-22.21496094 22.6596875 -21.42992187 22.319375 -20.62109375 21.96875 C-9.73574938 16.94679972 -4.17844446 11.21172676 0 0 Z " fill="#7D7D7D" transform="translate(967,944)"/>
<path d="M0 0 C4.09892674 0.26878208 6.35719312 1.0803887 9.8125 3.25 C12.5170839 7.30687585 12.69406965 10.48794964 11.8125 15.25 C10.31154786 18.27949531 8.60621704 20.33819787 5.8125 22.25 C2.9284845 23.13694921 0.70456917 23.08944751 -2.1875 22.25 C-5.19654079 20.46927176 -7.59783672 18.42932657 -9.1875 15.25 C-9.60818924 12.19098826 -9.67778455 9.30241674 -9.1875 6.25 C-6.75 3.25 -6.75 3.25 -4.1875 1.25 C-3.1875 0.25 -3.1875 0.25 0 0 Z " fill="#F6F7F9" transform="translate(295.1875,588.75)"/>
<path d="M0 0 C18.15 0 36.3 0 55 0 C55 0.66 55 1.32 55 2 C53.82083008 1.99476318 52.64166016 1.98952637 51.42675781 1.98413086 C46.99854306 1.96585625 42.57033155 1.95448694 38.14208984 1.94506836 C36.2355086 1.94007899 34.32893109 1.93328513 32.42236328 1.92456055 C15.48575383 1.21448451 15.48575383 1.21448451 -1 4 C-0.67 2.68 -0.34 1.36 0 0 Z " fill="#3CB2DE" transform="translate(785,102)"/>
<path d="M0 0 C0.66 0.33 1.32 0.66 2 1 C-5.26 8.26 -12.52 15.52 -20 23 C-20.66 22.67 -21.32 22.34 -22 22 C-6.93673978 5.53646622 -6.93673978 5.53646622 0 0 Z " fill="#DADADA" transform="translate(253,561)"/>
<path d="M0 0 C0.79921875 0.01804687 1.5984375 0.03609375 2.421875 0.0546875 C3.02515625 0.07789063 3.6284375 0.10109375 4.25 0.125 C4.25 0.455 4.25 0.785 4.25 1.125 C3.27160156 1.27195312 3.27160156 1.27195312 2.2734375 1.421875 C-6.11448405 2.85697662 -10.87753718 5.9070982 -16.75 12.125 C-15.18338209 6.64183733 -11.64467703 3.85823254 -6.8515625 0.98828125 C-4.41021196 -0.01457836 -2.62748616 -0.077279 0 0 Z " fill="#4E679B" transform="translate(295.75,579.875)"/>
<path d="M0 0 C0.33 0 0.66 0 1 0 C0.88544319 1.91731918 0.75793742 3.8338675 0.625 5.75 C0.55539062 6.81734375 0.48578125 7.8846875 0.4140625 8.984375 C0 12 0 12 -2 16 C-2 11.71 -2 7.42 -2 3 C-1.34 3 -0.68 3 0 3 C0 2.01 0 1.02 0 0 Z " fill="#4F5669" transform="translate(535,181)"/>
<path d="M0 0 C6.93 0.495 6.93 0.495 14 1 C14 1.33 14 1.66 14 2 C12.75283203 2.09087891 12.75283203 2.09087891 11.48046875 2.18359375 C9.85044922 2.30927734 9.85044922 2.30927734 8.1875 2.4375 C6.56908203 2.55931641 6.56908203 2.55931641 4.91796875 2.68359375 C1.94010095 2.90212461 1.94010095 2.90212461 -1 4 C-0.67 2.68 -0.34 1.36 0 0 Z " fill="#41BEEA" transform="translate(785,102)"/>
<path d="M0 0 C0.99 0.33 1.98 0.66 3 1 C2.67 1.33 2.34 1.66 2 2 C2.66 2.66 3.32 3.32 4 4 C1.03 4 -1.94 4 -5 4 C-2.6875 1.9375 -2.6875 1.9375 0 0 Z " fill="#3275B4" transform="translate(420,796)"/>
<path d="M0 0 C0.33 0.66 0.66 1.32 1 2 C0.22265625 3.9453125 0.22265625 3.9453125 -0.9375 6.125 C-1.31777344 6.84945312 -1.69804688 7.57390625 -2.08984375 8.3203125 C-2.39019531 8.87460937 -2.69054687 9.42890625 -3 10 C-3.66 10 -4.32 10 -5 10 C-3.84414715 6.08788267 -2.64465038 3.1254959 0 0 Z " fill="#4386BF" transform="translate(520,642)"/>
<path d="M0 0 C1 2 1 2 0.44140625 3.9453125 C0.15136719 4.66460938 -0.13867188 5.38390625 -0.4375 6.125 C-0.72496094 6.84945312 -1.01242188 7.57390625 -1.30859375 8.3203125 C-1.53675781 8.87460937 -1.76492187 9.42890625 -2 10 C-2.33 10 -2.66 10 -3 10 C-3.36923077 3.47692308 -3.36923077 3.47692308 -1.5 1.0625 C-1.005 0.711875 -0.51 0.36125 0 0 Z " fill="#444548" transform="translate(208,621)"/>
</svg>
