<?xml version="1.0" standalone="no"?>
<!DOCTYPE svg PUBLIC "-//W3C//DTD SVG 20010904//EN"
 "http://www.w3.org/TR/2001/REC-SVG-20010904/DTD/svg10.dtd">
<svg version="1.0" xmlns="http://www.w3.org/2000/svg"
 width="1024.000000pt" height="1024.000000pt" viewBox="0 0 1024.000000 1024.000000"
 preserveAspectRatio="xMidYMid meet">

<g transform="translate(0.000000,1024.000000) scale(0.100000,-0.100000)"
fill="#000000" stroke="none">
<path d="M9169 5260 c-12 -13 -29 -17 -62 -14 -26 2 -49 -1 -52 -6 -3 -6 -30
-10 -60 -10 -38 0 -54 -4 -59 -15 -4 -11 -20 -15 -56 -15 -46 0 -50 -2 -50
-25 0 -22 -4 -24 -57 -27 -55 -3 -58 -4 -61 -30 -3 -27 -6 -28 -58 -28 -51 0
-54 -2 -54 -24 0 -23 -4 -25 -52 -28 -49 -3 -53 -5 -56 -30 -3 -22 -9 -28 -28
-28 -15 0 -24 -6 -24 -16 0 -28 -27 -44 -74 -44 -25 0 -48 -4 -51 -10 -3 -5
-15 -10 -26 -10 -15 0 -19 -7 -19 -33 0 -25 -9 -42 -35 -67 -19 -18 -32 -37
-29 -42 3 -5 -6 -28 -20 -52 -19 -32 -34 -46 -56 -51 -38 -8 -44 -51 -7 -58
19 -4 18 -4 -5 -6 -16 0 -28 -6 -28 -12 0 -6 9 -9 19 -6 13 3 21 -1 24 -12 4
-14 5 -14 6 1 1 18 46 36 58 24 4 -3 -3 -6 -15 -6 -38 0 -24 -20 16 -22 20 0
48 -3 62 -5 42 -6 331 -34 395 -38 117 -7 311 -25 370 -35 33 -5 86 -10 119
-10 l59 0 -7 402 c-3 221 -7 402 -9 403 -1 1 -9 -6 -18 -15z m-2 -342 c-2 -13
-4 -3 -4 22 0 25 2 35 4 23 2 -13 2 -33 0 -45z m-1017 -289 c0 -5 -7 -9 -15
-9 -9 0 -12 6 -9 15 6 15 24 11 24 -6z m110 17 c0 -2 -7 -6 -15 -10 -8 -3 -15
-1 -15 4 0 6 7 10 15 10 8 0 15 -2 15 -4z"/>
<path d="M8144 4752 c-16 -11 -22 -35 -15 -55 12 -33 26 -23 27 21 1 23 1 42
0 42 0 0 -6 -4 -12 -8z"/>
<path d="M7810 4641 c0 -5 5 -13 10 -16 6 -3 10 -2 10 4 0 5 -4 13 -10 16 -5
3 -10 2 -10 -4z"/>
<path d="M7980 4641 c0 -5 5 -13 10 -16 6 -3 10 -2 10 4 0 5 -4 13 -10 16 -5
3 -10 2 -10 -4z"/>
<path d="M8060 4631 c0 -11 5 -23 10 -26 6 -3 10 3 10 14 0 11 -4 23 -10 26
-5 3 -10 -3 -10 -14z"/>
<path d="M7888 4623 c7 -3 16 -2 19 1 4 3 -2 6 -13 5 -11 0 -14 -3 -6 -6z"/>
<path d="M7970 4602 c0 -10 41 -24 49 -17 6 7 0 11 -26 19 -13 4 -23 3 -23 -2z"/>
<path d="M7927 4589 c7 -7 15 -10 18 -7 3 3 -2 9 -12 12 -14 6 -15 5 -6 -5z"/>
<path d="M3451 4051 c-1 -22 -31 -50 -47 -44 -8 3 -14 0 -14 -5 0 -16 18 -24
25 -12 5 8 11 7 21 -1 12 -10 13 -9 8 5 -3 9 -1 23 6 31 6 8 10 20 7 27 -4 10
-6 9 -6 -1z"/>
<path d="M3350 3980 c0 -5 7 -7 15 -4 8 4 15 8 15 10 0 2 -7 4 -15 4 -8 0 -15
-4 -15 -10z"/>
<path d="M3811 3974 c0 -11 3 -14 6 -6 3 7 2 16 -1 19 -3 4 -6 -2 -5 -13z"/>
<path d="M3305 3970 c-3 -5 1 -10 9 -10 9 0 16 5 16 10 0 6 -4 10 -9 10 -6 0
-13 -4 -16 -10z"/>
<path d="M3252 3928 c-16 -16 -15 -28 3 -28 8 0 15 2 15 4 0 2 3 11 6 20 7 19
-7 21 -24 4z"/>
<path d="M3776 3922 c-47 -4 -87 -29 -84 -51 4 -20 -62 -28 -226 -30 -99 -1
-108 0 -101 16 4 12 -3 9 -22 -10 -28 -26 -93 -39 -93 -19 0 12 -89 9 -98 -3
-10 -14 -88 -75 -97 -75 -11 0 -35 -28 -35 -40 0 -7 -7 -9 -16 -6 -8 3 -13 2
-11 -2 2 -4 -4 -15 -15 -24 -10 -10 -18 -15 -18 -12 0 3 -31 -26 -70 -65 -38
-39 -70 -69 -70 -66 0 3 -12 -8 -27 -23 -16 -15 -64 -60 -109 -98 -44 -39 -78
-76 -76 -84 3 -7 0 -10 -5 -7 -6 4 -19 -1 -30 -11 -11 -9 -43 -37 -72 -62 -28
-24 -51 -48 -51 -52 0 -8 88 -2 208 13 40 5 171 14 290 19 119 6 259 15 310
20 96 9 143 0 182 -36 15 -13 105 -87 125 -102 35 -26 225 -181 250 -204 17
-15 33 -28 37 -28 4 0 13 -6 20 -12 7 -7 38 -32 68 -56 30 -23 82 -64 115 -91
33 -27 63 -47 67 -45 3 2 2 16 -3 32 -5 15 -20 77 -34 137 -14 61 -32 139 -41
175 -34 147 -117 498 -126 535 -5 22 -14 65 -21 95 -6 30 -14 57 -17 60 -4 3
-10 26 -14 53 -4 26 -11 47 -16 47 -4 0 -6 9 -3 20 6 23 -20 49 -49 50 -10 0
-18 5 -18 10 0 17 31 24 41 9 7 -11 9 -11 9 3 0 22 -7 24 -54 20z m-636 -142
c0 -5 -5 -10 -11 -10 -5 0 -7 5 -4 10 3 6 8 10 11 10 2 0 4 -4 4 -10z"/>
<path d="M3203 3876 c14 -14 21 -16 30 -7 8 8 8 11 0 11 -6 0 -20 3 -30 7 -17
7 -17 6 0 -11z"/>
<path d="M3309 3863 c-13 -16 -12 -17 4 -4 16 13 21 21 13 21 -2 0 -10 -8 -17
-17z"/>
<path d="M5223 3788 c-6 -7 -27 -49 -48 -93 -127 -268 -470 -944 -510 -1006
-165 -253 -378 -433 -663 -558 -240 -106 -564 -144 -814 -96 -343 65 -603 209
-844 468 -61 65 -194 244 -194 261 0 3 -13 27 -28 53 -29 51 -91 204 -115 288
-32 111 -37 133 -44 215 -4 47 -8 127 -8 178 0 50 -3 92 -8 92 -4 0 -2 9 5 20
7 10 9 23 4 27 -8 8 -27 -19 -37 -52 -4 -17 -14 -20 -60 -21 -154 -1 -169 -3
-169 -22 0 -16 -16 -20 -143 -30 -78 -7 -177 -12 -219 -12 -60 0 -78 -3 -78
-14 0 -24 -31 -29 -37 -5 -3 12 -11 18 -19 15 -10 -4 -14 5 -14 34 0 22 -4 40
-10 40 -5 0 -10 -5 -10 -11 0 -13 -24 10 -33 31 -3 8 -6 0 -6 -18 -1 -24 2
-31 12 -26 9 6 9 4 -1 -8 -7 -9 -12 -20 -11 -24 3 -21 -4 -68 -8 -51 -2 9 -8
17 -13 17 -5 0 -11 -8 -13 -17 -3 -10 -6 14 -8 52 l-3 70 -5 -85 c-3 -47 -7
-295 -9 -551 -2 -257 -7 -583 -11 -725 -10 -317 -1 -507 26 -584 81 -223 231
-398 432 -503 105 -54 167 -75 246 -81 33 -3 1563 -6 3400 -8 2708 -2 3349 0
3390 11 94 24 267 117 349 187 87 74 181 194 225 287 73 155 91 267 89 550 -1
148 -4 179 -17 190 -9 7 -56 28 -106 46 -49 19 -295 112 -545 209 -480 184
-525 202 -605 231 -51 19 -680 262 -792 306 -35 14 -91 36 -125 49 -35 13
-169 65 -298 114 -610 235 -833 321 -1060 407 -135 51 -267 103 -295 115 -27
12 -61 26 -75 30 -14 4 -32 11 -41 14 -9 4 -20 1 -26 -6z"/>
<path d="M1971 3774 c0 -11 3 -14 6 -6 3 7 2 16 -1 19 -3 4 -6 -2 -5 -13z"/>
<path d="M1930 3770 c0 -5 5 -10 10 -10 6 0 10 5 10 10 0 6 -4 10 -10 10 -5 0
-10 -4 -10 -10z"/>
<path d="M1930 3685 c0 -8 2 -15 4 -15 2 0 6 7 10 15 3 8 1 15 -4 15 -6 0 -10
-7 -10 -15z"/>
<path d="M1917 3653 c-10 -9 -9 -23 2 -23 5 0 11 7 15 15 5 15 -5 20 -17 8z"/>
<path d="M1090 3556 c0 -14 5 -26 10 -26 6 0 10 9 10 19 0 11 -4 23 -10 26 -6
4 -10 -5 -10 -19z"/>
<path d="M1235 3567 c-4 -10 -5 -21 -1 -24 10 -10 18 4 13 24 -4 17 -4 17 -12
0z"/>
<path d="M1192 3540 c0 -19 2 -27 5 -17 2 9 2 25 0 35 -3 9 -5 1 -5 -18z"/>
</g>
</svg>
