<svg xmlns="http://www.w3.org/2000/svg" viewBox="0 0 24 24">
  <g fill="currentColor">
    <path d="M12,20.95c.4,0-.19-.01,.23-.04,.21,.55,.47,1.07,.78,1.55-.34,.03,.33,.06,0,.08-.34,.02-.67,.03-1.01,.03-1.12,0-2.22-.09-3.3-.28-.31-.05-.66-.12-1.06-.21s-.8-.21-1.21-.37c-.41-.15-.81-.32-1.21-.52s-.75-.42-1.06-.69-.56-.56-.74-.87-.28-.68-.29-1.1V4.03c0-.38,.08-.71,.24-1.01s.37-.57,.64-.83c.29-.29,.63-.54,1.02-.76,.39-.22,.83-.41,1.3-.57,.47-.16,.95-.3,1.45-.42s.99-.21,1.5-.26,.98-.1,1.44-.14S11.6,0,12,0C12.6,0,13.27,.03,14,.1s1.46,.18,2.2,.34,1.44,.39,2.1,.68,1.22,.65,1.67,1.07c.26,.24,.47,.52,.63,.83s.24,.65,.25,1.01V12.07h-1.61V6.42c-.5,.31-1.05,.57-1.65,.78s-1.21,.38-1.85,.5-1.28,.21-1.91,.26-1.25,.08-1.84,.09c-.58,0-1.19-.03-1.83-.08s-1.28-.14-1.93-.28-1.26-.3-1.85-.5c-.59-.2-1.14-.46-1.65-.78v12.11c0,.17,.06,.32,.18,.47s.24,.26,.37,.35c.39,.31,.87,.57,1.44,.77,.56,.2,1.16,.37,1.79,.49s1.25,.21,1.85,.26,1.15,.08,1.64,.08ZM12,1.61c-.43,0-.87,.01-1.33,.04s-.93,.08-1.41,.15-.94,.17-1.39,.28-.87,.25-1.27,.42c-.13,.05-.29,.13-.5,.23s-.42,.22-.62,.37-.37,.29-.52,.44-.21,.32-.21,.5c0,.07,.01,.13,.04,.19s.06,.12,.1,.18c.18,.27,.45,.51,.79,.72s.73,.39,1.16,.54,.88,.28,1.36,.38,.95,.18,1.42,.24,.91,.1,1.31,.14,.76,.05,1.07,.04c.29,0,.65-.01,1.06-.04,.41-.03,.85-.07,1.32-.13s.94-.14,1.41-.25,.93-.24,1.37-.38,.83-.32,1.15-.53,.59-.45,.81-.73c.04-.06,.08-.12,.1-.18s.04-.12,.04-.19c0-.18-.07-.34-.21-.5s-.31-.31-.52-.44-.41-.25-.62-.35-.38-.18-.5-.24c-.39-.16-.82-.29-1.27-.4s-.92-.2-1.39-.28-.94-.13-1.4-.15-.91-.04-1.35-.05Z"/>
    <path d="M22.74,19.04c.02-.17,.03-.35,.03-.54s0-.36-.04-.54l1.17-.91c.11-.08,.13-.23,.07-.35l-1.1-1.91c-.07-.12-.22-.17-.34-.12l-1.37,.55c-.29-.22-.6-.41-.93-.54l-.21-1.46c-.02-.14-.14-.23-.27-.23h-2.21c-.14,0-.25,.1-.27,.23l-.21,1.46c-.34,.14-.65,.33-.93,.54l-1.37-.55c-.12-.05-.27,0-.34,.12l-1.1,1.91c-.07,.12-.05,.27,.07,.35l1.17,.91c-.02,.17-.05,.36-.05,.54s0,.36,.04,.54l-1.17,.91c-.11,.08-.13,.23-.07,.35l1.1,1.91c.07,.12,.22,.17,.34,.12l1.37-.55c.29,.22,.6,.41,.93,.54l.21,1.46c.02,.14,.14,.23,.27,.23h2.21c.14,0,.26-.1,.27-.23l.21-1.46c.34-.14,.65-.32,.93-.54l1.37,.55c.12,.05,.27,0,.34-.12l1.1-1.91c.07-.12,.04-.27-.07-.35l-1.16-.91h0Zm-4.1,1.53c-1.14,0-2.07-.93-2.07-2.07s.93-2.07,2.07-2.07,2.07,.93,2.07,2.07-.93,2.07-2.07,2.07Z" />
  </g>
</svg>
