<svg xmlns="http://www.w3.org/2000/svg" viewBox="0 0 24 24">
  <g fill="currentColor">
    <path d="m4.75,18.5c-.69,0-1.25-.56-1.25-1.25V6.75c0-.69.56-1.25,1.25-1.25h14.5c.69,0,1.25.56,1.25,1.25v4.98c.55.29,1.05.65,1.5,1.08v-6.06c0-1.52-1.23-2.75-2.75-2.75H4.75c-1.52,0-2.75,1.23-2.75,2.75v10.5c0,1.52,1.23,2.75,2.75,2.75h6.75c-.2-.47-.34-.98-.42-1.5h-6.33Z"/>
    <path d="m22.28,18.82l-1.07-.83c.02-.16.04-.32.04-.49s-.01-.33-.04-.49l1.06-.83c.09-.08.12-.21.06-.32l-1-1.73c-.06-.11-.19-.15-.31-.11l-1.24.5c-.26-.2-.54-.37-.85-.49l-.19-1.32c-.01-.12-.12-.21-.24-.21h-2c-.12,0-.23.09-.25.21l-.19,1.32c-.3.13-.59.29-.85.49l-1.24-.5c-.11-.04-.24,0-.31.11l-1,1.73c-.06.11-.04.24.06.32l1.06.83c-.02.16-.03.32-.03.49s.01.33.03.49l-1.06.83c-.09.08-.12.21-.06.32l1,1.73c.06.11.19.15.31.11l1.24-.5c.26.2.54.37.85.49l.19,1.32c.02.12.12.21.25.21h2c.12,0,.23-.09.25-.21l.19-1.32c.3-.13.59-.29.84-.49l1.25.5c.11.04.24,0,.31-.11l1-1.73c.06-.11.03-.24-.06-.32Zm-4.78.18c-.83,0-1.5-.67-1.5-1.5s.67-1.5,1.5-1.5,1.5.67,1.5,1.5-.67,1.5-1.5,1.5Z"/>
  </g>
</svg>
