<svg xmlns="http://www.w3.org/2000/svg" viewBox="0 0 24 24">
  <g fill="currentColor">
    <path d="M1.5,19.5H11.93l.88,1.5H0V3H22.5V13.72c-.14-.02-1.39,.58-1.5,.61V4.5H1.5v15Z"/>
    <path d="M1014.73-875.18V276.82h-128V-747.18H-905.27V532.82H118.73v128H-1033.27V-875.18H1014.73ZM758.73,532.82h256v128h-256v256h-128v-256H374.73v-128h256V276.82h128v256Z"/>
    <path d="M22.74,19.04c.02-.17,.03-.35,.03-.54s0-.36-.04-.54l1.17-.91c.11-.08,.13-.23,.07-.35l-1.1-1.91c-.07-.12-.22-.17-.34-.12l-1.37,.55c-.29-.22-.6-.41-.93-.54l-.21-1.46c-.02-.14-.14-.23-.27-.23h-2.21c-.14,0-.25,.1-.27,.23l-.21,1.46c-.34,.14-.65,.33-.93,.54l-1.37-.55c-.12-.05-.27,0-.34,.12l-1.1,1.91c-.07,.12-.05,.27,.07,.35l1.17,.91c-.02,.17-.05,.36-.05,.54s0,.36,.04,.54l-1.17,.91c-.11,.08-.13,.23-.07,.35l1.1,1.91c.07,.12,.22,.17,.34,.12l1.37-.55c.29,.22,.6,.41,.93,.54l.21,1.46c.02,.14,.14,.23,.27,.23h2.21c.14,0,.26-.1,.27-.23l.21-1.46c.34-.14,.65-.32,.93-.54l1.37,.55c.12,.05,.27,0,.34-.12l1.1-1.91c.07-.12,.04-.27-.07-.35l-1.16-.91h0Zm-4.1,1.53c-1.14,0-2.07-.93-2.07-2.07s.93-2.07,2.07-2.07,2.07,.93,2.07,2.07-.93,2.07-2.07,2.07Z" />
  </g>
</svg>
