<svg xmlns="http://www.w3.org/2000/svg" viewBox="0 0 24 24">
  <g fill="currentColor">
    <path d="m22.6,19.07l-1.07-.83c.02-.16.04-.32.04-.49s-.01-.33-.04-.49l1.06-.83c.09-.08.12-.21.06-.32l-1-1.73c-.06-.11-.19-.15-.31-.11l-1.24.5c-.26-.2-.54-.37-.85-.49l-.19-1.32c-.01-.12-.12-.21-.24-.21h-2c-.12,0-.23.09-.25.21l-.19,1.32c-.3.13-.59.29-.85.49l-1.24-.5c-.11-.04-.24,0-.31.11l-1,1.73c-.06.11-.04.24.06.32l1.06.83c-.02.16-.03.32-.03.49s.01.33.03.49l-1.06.83c-.09.08-.12.21-.06.32l1,1.73c.06.11.19.15.31.11l1.24-.5c.26.2.54.37.85.49l.19,1.32c.02.12.12.21.25.21h2c.12,0,.23-.09.25-.21l.19-1.32c.3-.13.59-.29.84-.49l1.25.5c.11.04.24,0,.31-.11l1-1.73c.06-.11.03-.24-.06-.32Zm-4.78.18c-.83,0-1.5-.67-1.5-1.5s.67-1.5,1.5-1.5,1.5.67,1.5,1.5-.67,1.5-1.5,1.5Z"/>
    <path d="m4,6v12c0,.69.32,1.29.77,1.78.45.48,1.08.88,1.79,1.2,1.43.64,3.35,1.02,5.43,1.02.51,0,.53-.02,1.01-.07-.42-.52-.46-.84-.88-1.43-1.87-.01-3.78-.36-4.95-.89-.6-.27-1.04-.57-1.32-.86-.28-.29-.37-.54-.37-.75v-9.61c.32.22.68.42,1.07.59,1.43.64,3.35,1.02,5.43,1.02s4-.38,5.43-1.02c.39-.17.75-.37,1.07-.59v3.43h.75c.49,0,.75.56.75.56v-6.37c0-.69-.32-1.29-.77-1.78-.45-.48-1.08-.88-1.79-1.2-1.43-.64-3.35-1.02-5.43-1.02s-4,.38-5.43,1.02c-.71.32-1.34.72-1.79,1.2-.46.49-.77,1.09-.77,1.78Zm1.5,0c0-.21.09-.46.36-.75.28-.3.72-.6,1.32-.86,1.2-.54,2.9-.89,4.82-.89s3.62.35,4.82.89c.6.27,1.04.57,1.32.86.27.29.36.54.36.75s-.09.46-.36.75c-.28.3-.72.6-1.32.86-1.19.54-2.9.89-4.82.89s-3.62-.35-4.82-.89c-.6-.27-1.04-.57-1.32-.86-.27-.29-.36-.54-.36-.75Z"/>
  </g>
</svg>
